<?xml version="1.0" standalone="no"?>
<!DOCTYPE svg PUBLIC "-//W3C//DTD SVG 20010904//EN"
 "http://www.w3.org/TR/2001/REC-SVG-20010904/DTD/svg10.dtd">
<svg version="1.0" xmlns="http://www.w3.org/2000/svg"
 width="700.000000pt" height="700.000000pt" viewBox="0 0 700.000000 700.000000"
 preserveAspectRatio="xMidYMid meet">
<metadata>
Created by potrace 1.14, written by Peter Selinger 2001-2017
</metadata>
<g transform="translate(0.000000,700.000000) scale(0.100000,-0.100000)"
fill="#000000" stroke="none">
<path d="M766 6549 c-114 -27 -233 -129 -289 -246 l-32 -68 0 -1095 0 -1095
32 -68 c38 -79 114 -163 180 -199 112 -61 59 -59 1224 -56 l1064 3 58 23 c109
45 203 139 249 252 l23 55 3 1064 c3 1165 5 1112 -56 1224 -36 66 -120 142
-199 180 l-68 32 -1075 2 c-628 1 -1091 -3 -1114 -8z m2074 -1409 l0 -980
-980 0 -980 0 0 980 0 980 980 0 980 0 0 -980z"/>
<path d="M1373 5674 c-64 -32 -64 -32 -61 -548 l3 -466 33 -32 32 -33 463 -3
c518 -3 514 -3 550 68 16 32 17 72 15 497 l-3 463 -33 32 -32 33 -468 2 c-409
3 -471 1 -499 -13z"/>
<path d="M4047 6549 c-100 -24 -221 -116 -269 -206 -61 -112 -59 -59 -56
-1224 l3 -1064 22 -55 c46 -111 142 -207 253 -253 l55 -22 1064 -3 c1165 -3
1112 -5 1224 56 66 36 142 120 180 199 l32 68 0 1096 0 1095 -37 75 c-46 93
-122 168 -215 212 l-68 32 -1075 2 c-605 1 -1091 -3 -1113 -8z m2073 -1409 l0
-980 -980 0 -980 0 0 980 0 980 980 0 980 0 0 -980z"/>
<path d="M4665 5680 c-11 -4 -31 -20 -45 -35 l-25 -27 -3 -461 c-3 -518 -3
-514 68 -550 32 -16 72 -17 497 -15 l463 3 32 33 33 32 3 466 c2 410 1 469
-13 499 -32 65 -32 65 -537 64 -249 0 -462 -4 -473 -9z"/>
<path d="M748 3261 c-123 -40 -216 -121 -271 -239 l-32 -67 0 -1096 0 -1095
37 -75 c46 -93 122 -168 215 -212 l68 -32 1060 -3 c788 -2 1074 0 1115 9 156
33 278 150 324 310 15 50 16 166 14 1120 l-3 1064 -23 55 c-46 113 -140 207
-249 252 l-58 23 -1070 2 c-1014 2 -1073 1 -1127 -16z m2092 -1406 l0 -985
-980 0 -980 0 0 985 0 985 980 0 980 0 0 -985z"/>
<path d="M1394 2403 c-12 -2 -34 -18 -50 -34 l-29 -30 -3 -465 c-2 -410 -1
-469 13 -499 32 -66 30 -66 549 -63 l466 3 32 33 33 32 3 463 c2 425 1 465
-15 497 -36 70 -34 70 -533 69 -245 -1 -455 -4 -466 -6z"/>
<path d="M3754 3246 l-34 -34 0 -362 c0 -394 1 -404 57 -429 16 -7 148 -11
389 -11 l366 0 29 29 29 29 0 366 c0 262 -3 372 -12 391 -24 53 -36 55 -429
55 l-361 0 -34 -34z"/>
<path d="M5958 3263 c-14 -9 -31 -27 -37 -40 -7 -15 -11 -118 -11 -279 l0
-256 28 -28 c38 -37 86 -43 343 -38 141 2 211 7 226 16 49 27 53 53 53 323 l0
251 -34 34 -34 34 -253 0 c-219 0 -258 -3 -281 -17z"/>
<path d="M4660 2393 c-71 -36 -71 -32 -68 -550 l3 -463 33 -32 32 -33 466 -3
c410 -2 469 -1 499 13 66 32 66 30 63 549 l-3 466 -33 32 -32 33 -463 3 c-425
2 -465 1 -497 -15z"/>
<path d="M5741 1296 c-49 -27 -50 -36 -51 -419 0 -388 2 -401 55 -425 35 -16
723 -17 758 -1 56 25 57 36 57 423 0 382 -2 396 -51 422 -39 20 -732 20 -768
0z"/>
<path d="M3774 1079 c-50 -25 -54 -49 -54 -319 l0 -252 34 -34 34 -34 251 0
c270 0 296 4 323 53 9 15 14 85 16 226 5 257 -1 305 -38 343 l-28 28 -259 -1
c-152 0 -267 -5 -279 -10z"/>
</g>
</svg>
